<svg width="1920" height="315" viewBox="0 -30 1920 315" fill="none" xmlns="http://www.w3.org/2000/svg">
<g clip-path="url(#clip0_49_1558)">
<path d="M76.7367 148.998C49.3255 177.707 23.4757 204.877 4.91864 224.405C-5.75686 235.639 2.1876 254.154 17.6851 254.154C58.205 254.154 121.614 254.155 174.468 254.154C181.677 254.154 185.364 245.525 180.4 240.297L93.7164 149.018C89.1039 144.161 81.3623 144.154 76.7367 148.998Z" fill="url(#paint0_linear_49_1558)"/>
<path d="M17.7051 0.000416567C71.5564 2.19732e-05 165.812 -0.000416598 222.006 0.000770659C266.13 0.00170291 332.316 49.4195 332.316 127.078C332.316 204.736 264.365 254.155 222.006 254.155C218.534 254.155 68.6142 96.7786 4.87709 29.7057C-5.7984 18.4715 2.2076 0.000530125 17.7051 0.000416567Z" fill="url(#paint1_linear_49_1558)"/>
<path d="M1858.92 160.425C1858.92 103.706 1834.08 89.2744 1813.27 89.2744C1784.41 89.2744 1767.63 118.137 1767.63 160.425C1767.63 202.377 1782.06 231.576 1810.59 231.576C1832.07 231.576 1858.92 217.144 1858.92 160.425ZM1826.36 0.000318527H1895.5L1895.16 45.9798V221.843C1895.16 230.569 1896.84 232.583 1905.57 233.254L1920 234.596V247.014L1857.58 251.042L1856.9 219.829H1856.23C1845.83 237.281 1826.36 254.398 1798.51 254.398C1755.88 254.398 1725.01 217.48 1725.01 160.425C1725.01 103.035 1759.58 66.4524 1804.88 66.4524C1828.71 66.4524 1846.16 81.5552 1855.9 99.0073H1856.57C1856.23 87.5963 1855.9 82.2264 1855.9 69.473V25.1716C1855.9 16.4455 1854.22 14.7675 1845.16 14.0962L1826.36 12.4182V0.000318527Z" fill="#FFFFFF"/>
<path d="M1698.67 130.893V224.866C1698.67 233.592 1700.35 235.27 1709.08 236.277L1723.51 237.62V250.037H1634.57V237.62L1648.67 236.277C1657.39 235.27 1659.41 233.592 1659.41 224.866V144.318C1659.41 105.722 1650.68 90.6193 1627.86 90.6193C1603.02 90.6193 1588.59 112.099 1588.59 141.297V224.866C1588.59 233.592 1590.61 235.27 1599.33 236.277L1613.43 237.62V250.037H1524.49V237.62L1538.92 236.277C1547.65 235.27 1549.33 233.592 1549.33 224.866V94.3111C1549.33 85.9207 1547.98 84.5782 1538.92 83.2358L1524.49 81.8933V69.4755H1588.26V99.681H1588.59C1599 80.2152 1618.46 66.4549 1644.64 66.4549C1687.93 66.4549 1698.67 98.0029 1698.67 130.893Z" fill="#FFFFFF"/>
<path d="M1431.15 234.599C1453.3 234.599 1470.42 221.174 1472.77 195.667H1511.03C1503.64 237.284 1467.4 254.4 1428.47 254.4C1376.45 254.4 1339.86 218.489 1339.86 161.434C1339.86 107.736 1373.09 66.4549 1427.79 66.4549C1475.79 66.4549 1512.71 96.9961 1511.7 162.106H1380.81C1380.81 206.407 1398.6 234.599 1431.15 234.599ZM1427.46 85.5851C1402.29 85.5851 1382.82 102.702 1380.81 141.969H1470.42C1471.43 101.359 1451.96 85.5851 1427.46 85.5851Z" fill="#FFFFFF"/>
<path d="M1205.81 193.318C1208.49 216.476 1222.25 234.599 1250.78 234.599C1276.62 234.599 1291.72 223.524 1291.72 206.407C1291.72 185.599 1269.57 178.551 1248.43 174.524L1227.62 170.496C1200.77 165.462 1173.25 150.359 1173.25 117.469C1173.25 81.2221 1210.17 66.4549 1245.41 66.4549C1283.33 66.4549 1314.54 85.2495 1321.26 120.825H1284.68C1283.67 101.023 1265.54 86.2563 1242.39 86.2563C1229.3 86.2563 1204.8 90.6193 1204.8 109.414C1204.8 125.523 1217.55 133.914 1240.04 138.277L1260.85 142.64C1294.07 149.352 1324.28 161.434 1324.28 198.688C1324.28 238.962 1288.37 254.4 1247.42 254.4C1205.13 254.4 1172.24 232.585 1169.22 193.318H1205.81Z" fill="#FFFFFF"/>
<path d="M1109.61 160.428C1109.61 106.729 1089.47 86.2563 1062.62 86.2563C1036.45 86.2563 1016.64 106.729 1016.64 160.428C1016.64 213.791 1036.78 234.599 1062.62 234.599C1089.14 234.599 1109.61 213.791 1109.61 160.428ZM1152.23 160.428C1152.23 217.818 1114.64 254.4 1062.29 254.4C1010.27 254.4 974.022 218.154 974.022 160.428C974.022 103.037 1010.6 66.4549 1062.62 66.4549C1114.98 66.4549 1152.23 102.702 1152.23 160.428Z" fill="#FFFFFF"/>
<path d="M889.727 69.4723V109.746H890.398C900.131 83.9038 921.946 68.1298 948.459 68.1298H964.233V105.048H932.35C906.172 105.048 890.062 112.767 890.062 149.685V224.527C890.062 233.253 892.076 235.267 900.802 235.603L925.973 237.281V250.034H825.959V237.616L840.391 236.274C849.117 235.267 850.795 233.589 850.795 224.863V94.308C850.795 85.9175 849.453 84.5751 840.391 83.2326L825.959 81.8901V69.4723H889.727Z" fill="#FFFFFF"/>
<path d="M806.729 69.4696V90.9491H755.379V199.018C755.379 221.168 760.414 226.538 781.558 226.538H806.393V250.031H775.516C728.53 250.031 716.112 243.319 716.112 203.381V90.9491H684.564V69.4696H716.112V12.0792H755.379V69.4696H806.729Z" fill="#FFFFFF"/>
<path d="M555.318 130.893V224.866C555.318 233.592 556.996 235.27 565.722 236.277L580.154 237.62V250.037H491.216V237.62L505.311 236.277C514.037 235.27 516.051 233.592 516.051 224.866V144.318C516.051 105.722 507.325 90.6193 484.503 90.6193C459.668 90.6193 445.236 112.099 445.236 141.297V224.866C445.236 233.592 447.25 235.27 455.976 236.277L470.072 237.62V250.037H381.133V237.62L395.565 236.277C404.291 235.27 405.969 233.592 405.969 224.866V94.3111C405.969 85.9207 404.626 84.5782 395.565 83.2358L381.133 81.8933V69.4755H444.9V99.681H445.236C455.64 80.2152 475.106 66.4549 501.284 66.4549C544.579 66.4549 555.318 98.0029 555.318 130.893Z" fill="#FFFFFF"/>
<path d="M660.184 69.473L659.848 114.11V224.864C659.848 233.59 661.862 235.268 670.588 236.275L684.684 237.617V250.035H595.745V237.617L610.177 236.275C618.903 235.268 620.581 233.59 620.581 224.864V94.3087C620.581 85.9182 619.238 84.5757 610.177 83.2333L595.745 81.8908V69.473H660.184ZM611.202 45.3086L620.581 22.6545L611.202 0.000318527H637.194C649.705 0.000318527 659.848 10.1429 659.848 22.6545C659.848 35.166 649.705 45.3086 637.194 45.3086H611.202Z" fill="#FFFFFF"/>
</g>
<defs>
<linearGradient id="paint0_linear_49_1558" x1="-23.3234" y1="49.0592" x2="433.007" y2="53.5138" gradientUnits="userSpaceOnUse">
<stop stop-color="#FFD300"/>
<stop offset="0.182935" stop-color="#FF8509"/>
<stop offset="0.341346" stop-color="#FF0000"/>
<stop offset="0.495192" stop-color="#9B0221"/>
<stop offset="1" stop-color="#FF4000"/>
</linearGradient>
<linearGradient id="paint1_linear_49_1558" x1="-23.3234" y1="205.096" x2="433.007" y2="200.641" gradientUnits="userSpaceOnUse">
<stop stop-color="#FFD300"/>
<stop offset="0.260135" stop-color="#FF8509"/>
<stop offset="0.628391" stop-color="#FF0000"/>
<stop offset="1" stop-color="#FF4000"/>
</linearGradient>
<clipPath id="clip0_49_1558">
<rect width="1920" height="254.4" fill="white"/>
</clipPath>
</defs>
</svg>
